--40001LOG 13:05:58:431931100 Waiting for file /home/seluser/videos/vid_chrome_or_firefox_40001* to be created...
Won't start video recording due to VIDEO env var false
ffmpeg version 2.8.17-0ubuntu0.1 Copyright (c) 2000-2020 the FFmpeg developers
  built with gcc 5.4.0 (Ubuntu 5.4.0-6ubuntu1~16.04.12) 20160609
  configuration: --prefix=/usr --extra-version=0ubuntu0.1 --build-suffix=-ffmpeg --toolchain=hardened --libdir=/usr/lib/x86_64-linux-gnu --incdir=/usr/include/x86_64-linux-gnu --cc=cc --cxx=g++ --enable-gpl --enable-shared --disable-stripping --disable-decoder=libopenjpeg --disable-decoder=libschroedinger --enable-avresample --enable-avisynth --enable-gnutls --enable-ladspa --enable-libass --enable-libbluray --enable-libbs2b --enable-libcaca --enable-libcdio --enable-libflite --enable-libfontconfig --enable-libfreetype --enable-libfribidi --enable-libgme --enable-libgsm --enable-libmodplug --enable-libmp3lame --enable-libopenjpeg --enable-libopus --enable-libpulse --enable-librtmp --enable-libschroedinger --enable-libshine --enable-libsnappy --enable-libsoxr --enable-libspeex --enable-libssh --enable-libtheora --enable-libtwolame --enable-libvorbis --enable-libvpx --enable-libwavpack --enable-libwebp --enable-libx265 --enable-libxvid --enable-libzvbi --enable-openal --enable-opengl --enable-x11grab --enable-libdc1394 --enable-libiec61883 --enable-libzmq --enable-frei0r --enable-libx264 --enable-libopencv
  libavutil      54. 31.100 / 54. 31.100
  libavcodec     56. 60.100 / 56. 60.100
  libavformat    56. 40.101 / 56. 40.101
  libavdevice    56.  4.100 / 56.  4.100
  libavfilter     5. 40.101 /  5. 40.101
  libavresample   2.  1.  0 /  2.  1.  0
  libswscale      3.  1.101 /  3.  1.101
  libswresample   1.  2.101 /  1.  2.101
  libpostproc    53.  3.100 / 53.  3.100
Input #0, x11grab, from ':0.0':
  Duration: N/A, start: 1603883158.666695, bitrate: N/A
    Stream #0:0: Video: rawvideo (BGR[0] / 0x524742), bgr0, 1366x768, 10 fps, 10 tbr, 1000k tbn, 10 tbc
[libx264 @ 0xd47320] using cpu capabilities: MMX2 SSE2Fast SSSE3 SSE4.2 AVX FMA3 AVX2 LZCNT BMI2
[libx264 @ 0xd47320] profile Constrained Baseline, level 3.2
[libx264 @ 0xd47320] 264 - core 148 r2643 5c65704 - H.264/MPEG-4 AVC codec - Copyleft 2003-2015 - http://www.videolan.org/x264.html - options: cabac=0 ref=1 deblock=0:0:0 analyse=0:0 me=dia subme=0 psy=1 psy_rd=1.00:0.00 mixed_ref=0 me_range=16 chroma_me=1 trellis=0 8x8dct=0 cqm=0 deadzone=21,11 fast_pskip=1 chroma_qp_offset=0 threads=3 lookahead_threads=1 sliced_threads=0 nr=0 decimate=1 interlaced=0 bluray_compat=0 constrained_intra=0 bframes=0 weightp=0 keyint=250 keyint_min=10 scenecut=0 intra_refresh=0 rc=crf mbtree=0 crf=23.0 qcomp=0.60 qpmin=0 qpmax=69 qpstep=4 ip_ratio=1.40 aq=0
Output #0, matroska, to '/home/seluser/videos/vid_chrome_or_firefox_40001.mkv':
  Metadata:
    encoder         : Lavf56.40.101
    Stream #0:0: Video: h264 (libx264) (H264 / 0x34363248), yuv420p, 1366x768, q=-1--1, 10 fps, 1k tbn, 10 tbc
    Metadata:
      encoder         : Lavc56.60.100 libx264
Stream mapping:
  Stream #0:0 -> #0:0 (rawvideo (native) -> h264 (libx264))
Press [q] to stop, [?] for help
[swscaler @ 0xd52ca0] Warning: data is not aligned! This can lead to a speedloss
frame=    9 fps=0.0 q=9.0 size=      27kB time=00:00:00.50 bitrate= 439.9kbits/s    
frame=   15 fps= 13 q=9.0 size=      28kB time=00:00:01.10 bitrate= 211.2kbits/s    
frame=   21 fps= 12 q=12.0 size=      42kB time=00:00:01.70 bitrate= 200.1kbits/s    
frame=   27 fps= 11 q=10.0 size=      57kB time=00:00:02.30 bitrate= 204.1kbits/s    
frame=   33 fps= 11 q=9.0 size=      59kB time=00:00:02.90 bitrate= 166.1kbits/s    
frame=   38 fps= 11 q=9.0 size=      60kB time=00:00:03.40 bitrate= 144.6kbits/s    
frame=   44 fps= 11 q=17.0 size=     108kB time=00:00:04.00 bitrate= 221.5kbits/s    
frame=   50 fps= 11 q=14.0 size=     173kB time=00:00:04.60 bitrate= 308.9kbits/s    
frame=   56 fps= 11 q=9.0 size=     223kB time=00:00:05.20 bitrate= 350.7kbits/s    
frame=   62 fps= 11 q=10.0 size=     237kB time=00:00:05.80 bitrate= 334.9kbits/s    
frame=   67 fps= 11 q=11.0 size=     239kB time=00:00:06.30 bitrate= 310.2kbits/s    
frame=   73 fps= 10 q=9.0 size=     244kB time=00:00:06.90 bitrate= 290.2kbits/s    
frame=   79 fps= 10 q=9.0 size=     245kB time=00:00:07.50 bitrate= 267.6kbits/s    
frame=   84 fps= 10 q=9.0 size=     245kB time=00:00:08.00 bitrate= 251.4kbits/s    
frame=   89 fps= 10 q=11.0 size=     246kB time=00:00:08.50 bitrate= 237.0kbits/s    
frame=   94 fps= 10 q=10.0 size=     260kB time=00:00:09.00 bitrate= 237.0kbits/s    
frame=  100 fps= 10 q=10.0 size=     267kB time=00:00:09.60 bitrate= 227.5kbits/s    
frame=  106 fps= 10 q=9.0 size=     268kB time=00:00:10.20 bitrate= 215.0kbits/s    
frame=  112 fps= 10 q=9.0 size=     268kB time=00:00:10.80 bitrate= 203.3kbits/s    
frame=  118 fps= 10 q=12.0 size=     270kB time=00:00:11.40 bitrate= 194.3kbits/s    
frame=  123 fps= 10 q=9.0 size=     280kB time=00:00:11.90 bitrate= 192.6kbits/s    
frame=  129 fps= 10 q=9.0 size=     280kB time=00:00:12.50 bitrate= 183.7kbits/s    
frame=  134 fps= 10 q=9.0 size=     280kB time=00:00:13.00 bitrate= 176.8kbits/s    
frame=  140 fps= 10 q=9.0 size=     281kB time=00:00:13.60 bitrate= 169.2kbits/s    
frame=  145 fps= 10 q=9.0 size=     281kB time=00:00:14.10 bitrate= 163.3kbits/s    
frame=  151 fps= 10 q=9.0 size=     281kB time=00:00:14.70 bitrate= 156.8kbits/s    
frame=  156 fps= 10 q=9.0 size=     282kB time=00:00:15.20 bitrate= 151.7kbits/s    
frame=  162 fps= 10 q=9.0 size=     282kB time=00:00:15.80 bitrate= 146.2kbits/s    
frame=  168 fps= 10 q=9.0 size=     282kB time=00:00:16.40 bitrate= 140.9kbits/s    
frame=  173 fps= 10 q=9.0 size=     282kB time=00:00:16.90 bitrate= 136.9kbits/s    
frame=  178 fps= 10 q=9.0 size=     283kB time=00:00:17.40 bitrate= 133.1kbits/s    
frame=  184 fps= 10 q=9.0 size=     283kB time=00:00:18.00 bitrate= 128.8kbits/s    
frame=  190 fps= 10 q=9.0 size=     283kB time=00:00:18.60 bitrate= 124.8kbits/s    
frame=  195 fps= 10 q=9.0 size=     284kB time=00:00:19.10 bitrate= 121.6kbits/s    
frame=  200 fps= 10 q=9.0 size=     284kB time=00:00:19.60 bitrate= 118.6kbits/s    
frame=  205 fps= 10 q=9.0 size=     284kB time=00:00:20.10 bitrate= 115.7kbits/s    
frame=  211 fps= 10 q=9.0 size=     284kB time=00:00:20.70 bitrate= 112.5kbits/s    
frame=  216 fps= 10 q=9.0 size=     285kB time=00:00:21.20 bitrate= 110.0kbits/s    
frame=  222 fps= 10 q=9.0 size=     285kB time=00:00:21.80 bitrate= 107.1kbits/s    
frame=  228 fps= 10 q=9.0 size=     285kB time=00:00:22.40 bitrate= 104.3kbits/s    
frame=  234 fps= 10 q=9.0 size=     286kB time=00:00:23.00 bitrate= 101.7kbits/s    
frame=  240 fps= 10 q=9.0 size=     286kB time=00:00:23.60 bitrate=  99.2kbits/s    
frame=  245 fps= 10 q=9.0 size=     286kB time=00:00:24.10 bitrate=  97.2kbits/s    
frame=  251 fps= 10 q=9.0 size=     286kB time=00:00:24.70 bitrate=  95.0kbits/s    
frame=  256 fps= 10 q=15.0 size=     446kB time=00:00:25.20 bitrate= 144.9kbits/s    
frame=  262 fps= 10 q=9.0 size=     446kB time=00:00:25.80 bitrate= 141.6kbits/s    
frame=  268 fps= 10 q=9.0 size=     446kB time=00:00:26.40 bitrate= 138.4kbits/s    
frame=  274 fps= 10 q=9.0 size=     446kB time=00:00:27.00 bitrate= 135.4kbits/s    
frame=  279 fps= 10 q=9.0 size=     447kB time=00:00:27.50 bitrate= 133.0kbits/s    
frame=  285 fps= 10 q=9.0 size=     447kB time=00:00:28.10 bitrate= 130.2kbits/s    
frame=  291 fps= 10 q=9.0 size=     447kB time=00:00:28.70 bitrate= 127.5kbits/s    
frame=  296 fps= 10 q=9.0 size=     447kB time=00:00:29.20 bitrate= 125.4kbits/s    
frame=  301 fps= 10 q=9.0 size=     447kB time=00:00:29.70 bitrate= 123.3kbits/s    
frame=  306 fps= 10 q=9.0 size=     447kB time=00:00:30.20 bitrate= 121.3kbits/s    
frame=  311 fps= 10 q=9.0 size=     447kB time=00:00:30.70 bitrate= 119.4kbits/s    
frame=  316 fps= 10 q=9.0 size=     447kB time=00:00:31.20 bitrate= 117.5kbits/s    
frame=  321 fps= 10 q=9.0 size=     448kB time=00:00:31.70 bitrate= 115.7kbits/s    
frame=  327 fps= 10 q=9.0 size=     448kB time=00:00:32.30 bitrate= 113.6kbits/s    
frame=  332 fps= 10 q=9.0 size=     448kB time=00:00:32.80 bitrate= 111.9kbits/s    
frame=  337 fps= 10 q=9.0 size=     448kB time=00:00:33.30 bitrate= 110.2kbits/s    
frame=  343 fps= 10 q=9.0 size=     448kB time=00:00:33.90 bitrate= 108.3kbits/s    
frame=  348 fps= 10 q=9.0 size=     448kB time=00:00:34.40 bitrate= 106.8kbits/s    
frame=  353 fps= 10 q=9.0 size=     449kB time=00:00:34.90 bitrate= 105.3kbits/s    
frame=  359 fps= 10 q=9.0 size=     449kB time=00:00:35.50 bitrate= 103.6kbits/s    
frame=  364 fps= 10 q=9.0 size=     449kB time=00:00:36.00 bitrate= 102.2kbits/s    
frame=  368 fps= 10 q=9.0 size=     449kB time=00:00:36.40 bitrate= 101.1kbits/s    
frame=  374 fps= 10 q=9.0 size=     449kB time=00:00:37.00 bitrate=  99.5kbits/s    
frame=  378 fps= 10 q=9.0 size=     449kB time=00:00:37.40 bitrate=  98.4kbits/s    
frame=  384 fps= 10 q=9.0 size=     449kB time=00:00:38.00 bitrate=  96.9kbits/s    
frame=  391 fps= 10 q=9.0 size=     450kB time=00:00:38.70 bitrate=  95.2kbits/s    
frame=  396 fps= 10 q=9.0 size=     450kB time=00:00:39.20 bitrate=  94.0kbits/s    
frame=  402 fps= 10 q=9.0 size=     450kB time=00:00:39.80 bitrate=  92.6kbits/s    
frame=  407 fps= 10 q=9.0 size=     450kB time=00:00:40.30 bitrate=  91.5kbits/s    
frame=  413 fps= 10 q=9.0 size=     450kB time=00:00:40.90 bitrate=  90.2kbits/s    
frame=  419 fps= 10 q=9.0 size=     451kB time=00:00:41.50 bitrate=  88.9kbits/s    
frame=  425 fps= 10 q=9.0 size=     451kB time=00:00:42.10 bitrate=  87.7kbits/s    
frame=  431 fps= 10 q=9.0 size=     451kB time=00:00:42.70 bitrate=  86.5kbits/s    
frame=  436 fps= 10 q=9.0 size=     451kB time=00:00:43.20 bitrate=  85.5kbits/s    
frame=  442 fps= 10 q=9.0 size=     451kB time=00:00:43.80 bitrate=  84.4kbits/s    
frame=  447 fps= 10 q=9.0 size=     451kB time=00:00:44.30 bitrate=  83.5kbits/s    
frame=  453 fps= 10 q=9.0 size=     452kB time=00:00:44.90 bitrate=  82.4kbits/s    
frame=  458 fps= 10 q=9.0 size=     452kB time=00:00:45.40 bitrate=  81.5kbits/s    
frame=  464 fps= 10 q=9.0 size=     452kB time=00:00:46.00 bitrate=  80.5kbits/s    
frame=  470 fps= 10 q=9.0 size=     452kB time=00:00:46.60 bitrate=  79.4kbits/s    
frame=  476 fps= 10 q=9.0 size=     452kB time=00:00:47.20 bitrate=  78.5kbits/s    
frame=  481 fps= 10 q=9.0 size=     452kB time=00:00:47.70 bitrate=  77.7kbits/s    
frame=  487 fps= 10 q=9.0 size=     452kB time=00:00:48.30 bitrate=  76.7kbits/s    
frame=  493 fps= 10 q=9.0 size=     453kB time=00:00:48.90 bitrate=  75.8kbits/s    
frame=  499 fps= 10 q=9.0 size=     453kB time=00:00:49.50 bitrate=  74.9kbits/s    
frame=  504 fps= 10 q=19.0 size=     453kB time=00:00:50.00 bitrate=  74.2kbits/s    
frame=  509 fps= 10 q=11.0 size=     612kB time=00:00:50.50 bitrate=  99.3kbits/s    
frame=  515 fps= 10 q=9.0 size=     612kB time=00:00:51.10 bitrate=  98.2kbits/s    
frame=  520 fps= 10 q=9.0 size=     612kB time=00:00:51.60 bitrate=  97.2kbits/s    
frame=  526 fps= 10 q=9.0 size=     613kB time=00:00:52.20 bitrate=  96.1kbits/s    
frame=  532 fps= 10 q=9.0 size=     613kB time=00:00:52.80 bitrate=  95.1kbits/s    
frame=  538 fps= 10 q=9.0 size=     613kB time=00:00:53.40 bitrate=  94.0kbits/s    
frame=  544 fps= 10 q=9.0 size=     613kB time=00:00:54.00 bitrate=  93.0kbits/s    
frame=  549 fps= 10 q=9.0 size=     613kB time=00:00:54.50 bitrate=  92.2kbits/s    
frame=  555 fps= 10 q=9.0 size=     613kB time=00:00:55.10 bitrate=  91.2kbits/s    
frame=  560 fps= 10 q=9.0 size=     614kB time=00:00:55.60 bitrate=  90.4kbits/s    
frame=  564 fps= 10 q=9.0 size=     614kB time=00:00:56.00 bitrate=  89.8kbits/s    
frame=  571 fps= 10 q=9.0 size=     614kB time=00:00:56.70 bitrate=  88.7kbits/s    
frame=  576 fps= 10 q=9.0 size=     614kB time=00:00:57.20 bitrate=  87.9kbits/s    
frame=  582 fps= 10 q=9.0 size=     614kB time=00:00:57.80 bitrate=  87.0kbits/s    
frame=  588 fps= 10 q=9.0 size=     614kB time=00:00:58.40 bitrate=  86.2kbits/s    
frame=  593 fps= 10 q=9.0 size=     614kB time=00:00:58.90 bitrate=  85.5kbits/s    
frame=  599 fps= 10 q=9.0 size=     615kB time=00:00:59.50 bitrate=  84.6kbits/s    
frame=  603 fps= 10 q=9.0 size=     615kB time=00:00:59.90 bitrate=  84.1kbits/s    
frame=  611 fps= 10 q=9.0 size=     615kB time=00:01:00.70 bitrate=  83.0kbits/s    
frame=  616 fps= 10 q=9.0 size=     615kB time=00:01:01.20 bitrate=  82.3kbits/s    
frame=  621 fps= 10 q=9.0 size=     615kB time=00:01:01.70 bitrate=  81.7kbits/s    
frame=  627 fps= 10 q=9.0 size=     616kB time=00:01:02.30 bitrate=  80.9kbits/s    
frame=  632 fps= 10 q=9.0 size=     616kB time=00:01:02.80 bitrate=  80.3kbits/s    
frame=  638 fps= 10 q=9.0 size=     616kB time=00:01:03.40 bitrate=  79.6kbits/s    
frame=  643 fps= 10 q=9.0 size=     616kB time=00:01:03.90 bitrate=  79.0kbits/s    
frame=  649 fps= 10 q=9.0 size=     616kB time=00:01:04.50 bitrate=  78.3kbits/s    
frame=  654 fps= 10 q=9.0 size=     616kB time=00:01:05.00 bitrate=  77.7kbits/s    
frame=  660 fps= 10 q=9.0 size=     616kB time=00:01:05.60 bitrate=  77.0kbits/s    
frame=  666 fps= 10 q=9.0 size=     617kB time=00:01:06.20 bitrate=  76.3kbits/s    
frame=  671 fps= 10 q=9.0 size=     617kB time=00:01:06.70 bitrate=  75.7kbits/s    
frame=  677 fps= 10 q=9.0 size=     617kB time=00:01:07.30 bitrate=  75.1kbits/s    
frame=  683 fps= 10 q=9.0 size=     617kB time=00:01:07.90 bitrate=  74.4kbits/s    
frame=  689 fps= 10 q=9.0 size=     617kB time=00:01:08.50 bitrate=  73.8kbits/s    
frame=  695 fps= 10 q=9.0 size=     617kB time=00:01:09.10 bitrate=  73.2kbits/s    
frame=  701 fps= 10 q=9.0 size=     617kB time=00:01:09.70 bitrate=  72.6kbits/s    
frame=  706 fps= 10 q=9.0 size=     618kB time=00:01:10.20 bitrate=  72.1kbits/s    
frame=  712 fps= 10 q=9.0 size=     618kB time=00:01:10.80 bitrate=  71.5kbits/s    
frame=  718 fps= 10 q=9.0 size=     618kB time=00:01:11.40 bitrate=  70.9kbits/s    
frame=  724 fps= 10 q=9.0 size=     618kB time=00:01:12.00 bitrate=  70.3kbits/s    
frame=  729 fps= 10 q=9.0 size=     618kB time=00:01:12.50 bitrate=  69.9kbits/s    
frame=  735 fps= 10 q=9.0 size=     618kB time=00:01:13.10 bitrate=  69.3kbits/s    
frame=  740 fps= 10 q=9.0 size=     619kB time=00:01:13.60 bitrate=  68.8kbits/s    
frame=  745 fps= 10 q=9.0 size=     619kB time=00:01:14.10 bitrate=  68.4kbits/s    
frame=  750 fps= 10 q=9.0 size=     619kB time=00:01:14.60 bitrate=  68.0kbits/s    
frame=  755 fps= 10 q=17.0 size=     778kB time=00:01:15.10 bitrate=  84.9kbits/s    
frame=  761 fps= 10 q=10.0 size=     778kB time=00:01:15.70 bitrate=  84.2kbits/s    
frame=  767 fps= 10 q=9.0 size=     778kB time=00:01:16.30 bitrate=  83.6kbits/s    
frame=  772 fps= 10 q=9.0 size=     779kB time=00:01:16.80 bitrate=  83.1kbits/s    
frame=  778 fps= 10 q=9.0 size=     779kB time=00:01:17.40 bitrate=  82.4kbits/s    
frame=  783 fps= 10 q=9.0 size=     779kB time=00:01:17.90 bitrate=  81.9kbits/s    
frame=  788 fps= 10 q=9.0 size=     779kB time=00:01:18.40 bitrate=  81.4kbits/s    
frame=  794 fps= 10 q=9.0 size=     779kB time=00:01:19.00 bitrate=  80.8kbits/s    
frame=  800 fps= 10 q=9.0 size=     779kB time=00:01:19.60 bitrate=  80.2kbits/s    
frame=  805 fps= 10 q=9.0 size=     780kB time=00:01:20.10 bitrate=  79.7kbits/s    
frame=  810 fps= 10 q=9.0 size=     780kB time=00:01:20.60 bitrate=  79.2kbits/s    
frame=  816 fps= 10 q=9.0 size=     780kB time=00:01:21.20 bitrate=  78.7kbits/s    
frame=  821 fps= 10 q=9.0 size=     780kB time=00:01:21.70 bitrate=  78.2kbits/s    
frame=  827 fps= 10 q=9.0 size=     780kB time=00:01:22.30 bitrate=  77.7kbits/s    
frame=  833 fps= 10 q=9.0 size=     780kB time=00:01:22.90 bitrate=  77.1kbits/s    
frame=  838 fps= 10 q=9.0 size=     781kB time=00:01:23.40 bitrate=  76.7kbits/s    
frame=  844 fps= 10 q=9.0 size=     781kB time=00:01:24.00 bitrate=  76.1kbits/s    
frame=  850 fps= 10 q=9.0 size=     781kB time=00:01:24.60 bitrate=  75.6kbits/s    
frame=  856 fps= 10 q=9.0 size=     781kB time=00:01:25.20 bitrate=  75.1kbits/s    
frame=  862 fps= 10 q=9.0 size=     781kB time=00:01:25.80 bitrate=  74.6kbits/s    
frame=  868 fps= 10 q=9.0 size=     781kB time=00:01:26.40 bitrate=  74.1kbits/s    
frame=  873 fps= 10 q=9.0 size=     782kB time=00:01:26.90 bitrate=  73.7kbits/s    
frame=  879 fps= 10 q=9.0 size=     782kB time=00:01:27.50 bitrate=  73.2kbits/s    
frame=  884 fps= 10 q=9.0 size=     782kB time=00:01:28.00 bitrate=  72.8kbits/s    
frame=  889 fps= 10 q=9.0 size=     782kB time=00:01:28.50 bitrate=  72.4kbits/s    
frame=  894 fps= 10 q=9.0 size=     782kB time=00:01:29.00 bitrate=  72.0kbits/s    
frame=  900 fps= 10 q=9.0 size=     782kB time=00:01:29.60 bitrate=  71.5kbits/s    
frame=  905 fps= 10 q=9.0 size=     782kB time=00:01:30.10 bitrate=  71.1kbits/s    
frame=  911 fps= 10 q=9.0 size=     783kB time=00:01:30.70 bitrate=  70.7kbits/s    
frame=  916 fps= 10 q=9.0 size=     783kB time=00:01:31.20 bitrate=  70.3kbits/s    
frame=  921 fps= 10 q=9.0 size=     783kB time=00:01:31.70 bitrate=  69.9kbits/s    
frame=  927 fps= 10 q=9.0 size=     783kB time=00:01:32.30 bitrate=  69.5kbits/s    
frame=  933 fps= 10 q=9.0 size=     783kB time=00:01:32.90 bitrate=  69.1kbits/s    
frame=  939 fps= 10 q=9.0 size=     783kB time=00:01:33.50 bitrate=  68.6kbits/s    
frame=  945 fps= 10 q=9.0 size=     784kB time=00:01:34.10 bitrate=  68.2kbits/s    
frame=  950 fps= 10 q=9.0 size=     784kB time=00:01:34.60 bitrate=  67.9kbits/s    
frame=  956 fps= 10 q=9.0 size=     784kB time=00:01:35.20 bitrate=  67.5kbits/s    
frame=  961 fps= 10 q=9.0 size=     784kB time=00:01:35.70 bitrate=  67.1kbits/s    
frame=  966 fps= 10 q=9.0 size=     784kB time=00:01:36.20 bitrate=  66.8kbits/s    
frame=  971 fps= 10 q=9.0 size=     784kB time=00:01:36.70 bitrate=  66.4kbits/s    
frame=  977 fps= 10 q=9.0 size=     784kB time=00:01:37.30 bitrate=  66.0kbits/s    
frame=  983 fps= 10 q=9.0 size=     785kB time=00:01:37.90 bitrate=  65.7kbits/s    
frame=  988 fps= 10 q=9.0 size=     785kB time=00:01:38.40 bitrate=  65.3kbits/s    
frame=  993 fps= 10 q=9.0 size=     785kB time=00:01:38.90 bitrate=  65.0kbits/s    
frame=  999 fps= 10 q=9.0 size=     785kB time=00:01:39.50 bitrate=  64.6kbits/s    
frame= 1005 fps= 10 q=17.0 size=     944kB time=00:01:40.10 bitrate=  77.3kbits/s    
frame= 1010 fps= 10 q=10.0 size=     945kB time=00:01:40.60 bitrate=  76.9kbits/s    
frame= 1015 fps= 10 q=9.0 size=     945kB time=00:01:41.10 bitrate=  76.6kbits/s    
frame= 1020 fps= 10 q=9.0 size=     945kB time=00:01:41.60 bitrate=  76.2kbits/s    
frame= 1025 fps= 10 q=9.0 size=     945kB time=00:01:42.10 bitrate=  75.8kbits/s    
frame= 1031 fps= 10 q=9.0 size=     945kB time=00:01:42.70 bitrate=  75.4kbits/s    
frame= 1037 fps= 10 q=9.0 size=     946kB time=00:01:43.30 bitrate=  75.0kbits/s    
frame= 1042 fps= 10 q=9.0 size=     946kB time=00:01:43.80 bitrate=  74.6kbits/s    
frame= 1048 fps= 10 q=9.0 size=     946kB time=00:01:44.40 bitrate=  74.2kbits/s    
frame= 1053 fps= 10 q=9.0 size=     946kB time=00:01:44.90 bitrate=  73.9kbits/s    
frame= 1059 fps= 10 q=9.0 size=     946kB time=00:01:45.50 bitrate=  73.5kbits/s    
frame= 1064 fps= 10 q=9.0 size=     946kB time=00:01:46.00 bitrate=  73.1kbits/s    
frame= 1070 fps= 10 q=9.0 size=     946kB time=00:01:46.60 bitrate=  72.7kbits/s    
frame= 1076 fps= 10 q=9.0 size=     947kB time=00:01:47.20 bitrate=  72.3kbits/s    
frame= 1081 fps= 10 q=9.0 size=     947kB time=00:01:47.70 bitrate=  72.0kbits/s    
frame= 1086 fps= 10 q=9.0 size=     947kB time=00:01:48.20 bitrate=  71.7kbits/s    
frame= 1092 fps= 10 q=9.0 size=     947kB time=00:01:48.80 bitrate=  71.3kbits/s    
frame= 1098 fps= 10 q=9.0 size=     947kB time=00:01:49.40 bitrate=  70.9kbits/s    
frame= 1104 fps= 10 q=9.0 size=     947kB time=00:01:50.00 bitrate=  70.6kbits/s    
frame= 1109 fps= 10 q=9.0 size=     948kB time=00:01:50.50 bitrate=  70.2kbits/s    
frame= 1115 fps= 10 q=9.0 size=     948kB time=00:01:51.10 bitrate=  69.9kbits/s    
frame= 1121 fps= 10 q=9.0 size=     948kB time=00:01:51.70 bitrate=  69.5kbits/s    
frame= 1127 fps= 10 q=9.0 size=     948kB time=00:01:52.30 bitrate=  69.2kbits/s    
frame= 1132 fps= 10 q=9.0 size=     948kB time=00:01:52.80 bitrate=  68.9kbits/s    
frame= 1137 fps= 10 q=9.0 size=     948kB time=00:01:53.30 bitrate=  68.6kbits/s    
frame= 1143 fps= 10 q=9.0 size=     949kB time=00:01:53.90 bitrate=  68.2kbits/s    
frame= 1148 fps= 10 q=9.0 size=     949kB time=00:01:54.40 bitrate=  67.9kbits/s    
frame= 1152 fps= 10 q=9.0 size=     949kB time=00:01:54.80 bitrate=  67.7kbits/s    
frame= 1158 fps= 10 q=-1.0 Lsize=     954kB time=00:01:55.80 bitrate=  67.5kbits/s    
video:946kB audio:0kB subtitle:0kB other streams:0kB global headers:0kB muxing overhead: 0.849714%
[libx264 @ 0xd47320] frame I:5     Avg QP: 8.80  size:133400
[libx264 @ 0xd47320] frame P:1153  Avg QP: 9.28  size:   261
[libx264 @ 0xd47320] mb I  I16..4: 100.0%  0.0%  0.0%
[libx264 @ 0xd47320] mb P  I16..4:  0.3%  0.0%  0.0%  P16..4:  0.2%  0.0%  0.0%  0.0%  0.0%    skip:99.5%
[libx264 @ 0xd47320] coded y,uvDC,uvAC intra: 18.4% 14.9% 14.3% inter: 0.1% 0.1% 0.1%
[libx264 @ 0xd47320] i16 v,h,dc,p: 72% 26%  2%  0%
[libx264 @ 0xd47320] i8c dc,h,v,p: 73% 22%  5%  0%
[libx264 @ 0xd47320] kb/s:66.90
--40001LOG 13:07:54:409807900 Trapped SIGTERM or SIGINT so shutting down ffmpeg gracefully...
Exiting normally, received signal 2.
--40001LOG 13:07:54:472399300 Will kill VID_TOOL_PID=499 ...
--40001LOG 13:07:55:499479400 Tried to kill -SIGTERM VID_TOOL_PID=499
--40001LOG 13:07:55:525902800 Waiting up to 6s for VID_TOOL_PID=499 to end with SIGTERM...
--40001LOG 13:07:55:548134500 wait_pid successfully managed to SIGTERM:VID_TOOL_PID=499 within less than 6s
--40001LOG 13:07:55:552538800 Will try to fix the videos...
--40001LOG 13:07:56:086461600 Fixing perms for /home/seluser/videos/vid_chrome_or_firefox_40001.mkv*
--40001LOG 13:07:56:140023400 Changing video encoding from mkv to mp4...
--40001LOG 13:08:08:376867900 Conversion from mkv to mp4 succeeded!
--40001LOG 13:08:08:381962700 Cleaning up /home/seluser/videos/vid_chrome_or_firefox_40001.mkv ...
--40001LOG 13:08:08:392968200 Optimizing /home/seluser/videos/vid_chrome_or_firefox_40001.mp4 for HTTP streaming...
--40001LOG 13:08:08:499421100 Succeeded to mp4box_retry.sh within 8s
--40001LOG 13:08:08:537169100 ffmpeg shutdown complete.
